 
<svg width="62" height="49" viewBox="0 0 62 49" fill="none" xmlns="http://www.w3.org/2000/svg">
<path d="M62 41.5367V48.9071H0V41.5367C0 39.587 1.51125 37.83 3.80912 37.1267L16.882 33.0638L27.0862 41.9257L30.2883 36.7704V36.7602L31 35.6057L31.7246 36.7603L34.9279 41.9257L45.1178 33.0638L58.2037 37.1267C60.4887 37.8413 62 39.587 62 41.5367Z" fill="#F2F2F2"/>
<path d="M40.145 31.5325H40.158V27.3369C39.4798 28.1495 38.6919 28.9743 37.7762 29.7991L36.5104 30.9016C35.3479 31.9011 33.6946 32.4839 31.9766 32.4839H30.0391C28.3212 32.4839 26.6665 31.902 25.5054 30.9016L24.2396 29.7991C23.3135 28.9672 22.5165 28.1311 21.8358 27.3104V31.5254L21.8565 31.5336L29.826 35.0861L31.0015 35.6067L32.1769 35.0861L40.145 31.5325Z" fill="#F8B64C"/>
<g opacity="0.1">
<g opacity="0.1">
<path opacity="0.1" d="M27.7334 32.1103C27.7256 32.1082 27.7179 32.1061 27.7101 32.1041C27.6972 32.1 27.683 32.097 27.67 32.0939C27.6571 32.0888 27.6429 32.0878 27.6249 32.0827L32.4958 34.942L40.145 31.5324H40.1528L40.158 27.3582C40.145 27.3735 38.3419 29.2406 37.7762 29.797L36.5104 30.9006C35.3479 31.9 33.6946 32.4828 31.9766 32.4828H30.0391C29.6477 32.4828 29.2641 32.4491 28.8882 32.3859C28.4903 32.3257 28.1067 32.2317 27.7334 32.1103Z" fill="#40596B"/>
</g>
</g>
<path d="M21.9351 18.7874C22.1366 20.6198 21.0115 22.1949 19.4227 22.3032C17.8314 22.4134 16.3783 21.0159 16.1729 19.1835C15.9714 17.3511 17.0965 15.778 18.6878 15.6678C20.2779 15.5575 21.7336 16.954 21.9351 18.7874Z" fill="#F8B64C"/>
<path d="M45.8387 19.1855C45.6372 21.018 44.1816 22.4145 42.5915 22.3042C41.0002 22.194 39.8738 20.6209 40.0792 18.7885C40.2807 16.956 41.7363 15.5586 43.3264 15.6688C44.9177 15.777 46.0428 17.3521 45.8387 19.1855Z" fill="#F8B64C"/>
<path d="M44.1814 18.7935C43.9373 20.8454 42.7076 25.3667 37.776 29.7971L36.5102 30.8996C35.3477 31.9 33.6945 32.4829 31.9765 32.4829H30.039C28.321 32.4829 26.6664 31.901 25.5052 30.8996L24.2395 29.7971C19.3052 25.3667 18.0912 20.8444 17.8315 18.7935C17.4828 15.9658 17.6248 12.3725 17.8315 11.4435C19.007 6.00253 24.8982 2.62354 31.0079 2.62354C37.1162 2.62354 43.0062 6.00253 44.1815 11.4435C44.3881 12.3725 44.5302 15.9669 44.1814 18.7935Z" fill="#FFD15C"/>
<path d="M20.9366 5.20328C20.9366 5.20328 21.0271 -1.67003 33.6712 0.525786C33.6712 0.525786 39.9448 2.08354 43.9812 6.69165C43.9812 6.69165 47.7684 11.0384 45.7095 14.695C45.0404 15.8822 44.3222 17.241 44.4049 18.3322C44.4049 18.3322 43.7036 16.0159 43.2851 14.0856C42.935 12.4686 42.0541 10.9537 40.7018 9.71032L40.6617 9.67252C38.4723 7.66859 35.0455 6.73146 31.8048 7.39201C30.2586 7.70744 28.4994 8.32301 26.5644 9.41431C26.5644 9.41431 21.297 6.62026 18.693 11.5111C18.693 11.5111 17.533 15.0861 17.6971 17.9097C17.6971 17.9085 10.447 5.91177 20.9366 5.20328Z" fill="#40596B"/>
<path d="M48.2683 35.922C48.2425 35.7485 48.1921 34.1569 47.7787 33.5138C47.0799 32.4307 45.8283 31.7069 44.317 31.5232L40.1578 30.8597V31.5334H40.1449L39.5494 31.7988L44.1103 32.5338C45.2083 32.6666 46.1266 33.1872 46.6161 33.9721C46.9391 34.4724 47.0708 35.0144 46.9662 35.5452L46.9391 35.8106C41.4753 39.5571 39.9253 42.936 39.8608 43.0891C39.45 44.0589 39.4746 44.8245 39.9266 45.3757C40.4317 45.9985 41.2558 46.0699 41.3591 46.0801L41.4883 45.0592C41.4753 45.0592 41.1653 45.0174 40.9987 44.804C40.792 44.5376 40.8166 44.0486 41.0891 43.4248C41.1021 43.4034 41.8641 41.7415 44.1891 39.4936C44.8349 39.2384 45.557 39.1884 46.2559 39.3507C46.9276 39.5141 47.4945 39.8724 47.8446 40.3502C48.1017 43.3014 47.5346 45.0369 47.5216 45.047C47.275 45.6799 46.9391 46.0985 46.5659 46.2107C46.2688 46.3138 45.9962 46.2005 45.9962 46.1904L45.6733 46.6385L45.3375 47.0806C45.3904 47.1112 45.7895 47.2847 46.3192 47.2847C46.5387 47.2847 46.7739 47.2541 47.018 47.1725C47.793 46.9387 48.3884 46.3252 48.7734 45.3452C48.8263 45.1922 50.0262 41.6285 48.2683 35.922ZM46.5529 38.566C46.1641 38.4741 45.7508 38.4343 45.3619 38.4445C45.9199 37.9637 46.5374 37.4748 47.2361 36.9756C47.4299 37.6892 47.5719 38.3731 47.6753 39.0172C47.3395 38.8212 46.9636 38.6691 46.5529 38.566Z" fill="#ACB3BA"/>
<path d="M42.4958 45.7497C42.3925 46.1601 41.8874 46.4276 41.3682 46.3469C40.8515 46.2662 41.2196 44.7789 41.7388 44.8596C42.2582 44.9402 42.5979 45.3393 42.4958 45.7497Z" fill="#F8B64C"/>
<path d="M44.5896 46.2602C44.3701 46.641 44.5793 47.0901 45.0611 47.2647C45.5429 47.4392 46.3423 46.0621 45.8606 45.8865C45.3827 45.712 44.8118 45.8793 44.5896 46.2602Z" fill="#F8B64C"/>
<path d="M21.855 31.5325L21.8343 31.5244V30.8588L19.0418 31.3131C16.0619 31.798 13.5548 33.3006 12.1572 35.4341C10.7622 37.5698 10.6615 40.0565 11.8846 42.2574L13.0678 41.847C12.0035 39.9299 12.0861 37.7647 13.3055 35.9038C14.521 34.0459 16.7065 32.7361 19.3002 32.3145L22.4558 31.8011L21.855 31.5325Z" fill="#ACB3BA"/>
<path d="M45.118 33.0638L35.5867 42.9454L31 35.6056L32.1755 35.085L40.145 31.5325H40.158L40.1708 31.5223L45.118 33.0638Z" fill="#CDD6E0"/>
<path d="M16.882 33.0638L26.4288 42.9454L31 35.6056L29.8245 35.085L21.855 31.5325L21.8292 31.5223L16.882 33.0638Z" fill="#CDD6E0"/>
<path d="M26.4288 48.9071L29.0367 44.2113L27.9116 42.9046L27.0876 41.9246L30.2883 36.7603L31 35.6057L31.7246 36.7603V36.7704L34.9279 41.9246L34.0884 42.8954L32.9633 44.2113L35.5867 48.9071H26.4288Z" fill="#334A5E"/>
<path d="M34.9279 41.9246L34.0884 42.8954L31.013 37.923L27.9116 42.9046L27.0876 41.9246L30.2883 36.7603L31 35.6057L31.7246 36.7603V36.7704L34.9279 41.9246Z" fill="#2A4356"/>
<path d="M16.3602 43.856C16.3602 45.132 15.0479 46.1682 13.4333 46.1682C11.8186 46.1682 10.509 45.132 10.509 43.856C10.509 42.58 11.8187 41.5449 13.4333 41.5449C15.0478 41.5449 16.3602 42.5799 16.3602 43.856Z" fill="#FF7058"/>
<path d="M15.3993 43.856C15.3993 44.7135 14.521 45.4087 13.436 45.4087C12.3484 45.4087 11.4688 44.7124 11.4688 43.856C11.4688 42.9995 12.3498 42.3033 13.436 42.3033C14.521 42.3033 15.3993 42.9985 15.3993 43.856Z" fill="#F2F2F2"/>
<path d="M14.8116 43.8561C14.8116 44.4584 14.1955 44.9444 13.4373 44.9444C12.6753 44.9444 12.0578 44.4574 12.0578 43.8561C12.0578 43.2559 12.6765 42.7689 13.4373 42.7689C14.1955 42.7689 14.8116 43.2559 14.8116 43.8561Z" fill="#ACB3BA"/>
</svg>
