 
<svg width="59" height="43" viewBox="0 0 59 43" fill="none" xmlns="http://www.w3.org/2000/svg">
<path d="M42.3216 0H58.8822V43H42.3216V0Z" fill="#9AB8C2"/>
<path d="M42.3217 0V43H25.8812L25.761 16.4412V0H42.3217Z" fill="#C0D9DD"/>
<path d="M25.761 15.1765H51.522V43H25.761V15.1765Z" fill="#DCEAEC"/>
<path d="M0 15.1765H25.761V43H0V15.1765Z" fill="#F7F9FA"/>
<path d="M33.1213 5.05884H36.8015V7.58825H33.1213V5.05884Z" fill="#0A789B"/>
<path d="M40.4816 5.05884H42.3216V7.58825H40.4816V5.05884Z" fill="#0A789B"/>
<path d="M47.842 5.05884H51.5221V7.58825H47.842V5.05884Z" fill="#08475E"/>
<path d="M33.1213 10.1177H36.8015V12.6471H33.1213V10.1177Z" fill="#0A789B"/>
<path d="M33.1213 30.3528H44.1618V42.9998H33.1213V30.3528Z" fill="#08475E"/>
<path d="M40.4816 10.1177H42.3216V12.6471H40.4816V10.1177Z" fill="#0A789B"/>
<path d="M42.3216 5.05884H44.1617V7.58825H42.3216V5.05884Z" fill="#08475E"/>
<path d="M42.3216 10.1177H44.1617V12.6471H42.3216V10.1177Z" fill="#08475E"/>
<path d="M47.8419 10.1177H51.522V12.6471H47.8419V10.1177Z" fill="#08475E"/>
<path d="M14.7206 5.05884V7.58825H11.0404V5.05884H7.36029V12.6471H11.0404V10.1177H14.7206V12.6471H18.4007V5.05884H14.7206Z" fill="#FF4A4A"/>
<path d="M44.1618 22.7645H40.4816V20.2351H36.8015V22.7645H33.1213V25.2939H36.8015V27.8233H40.4816V25.2939H44.1618V22.7645Z" fill="#C40048"/>
<path d="M0 37.3088H25.761V43H0V37.3088Z" fill="#08475E"/>
<path d="M0 31.6177H25.761V37.3089H0V31.6177Z" fill="#0A789B"/>
<path d="M0 25.9265H25.761V31.6177H0V25.9265Z" fill="#08475E"/>
<path d="M0 20.2351H25.761V25.9263H0V20.2351Z" fill="#0A789B"/>
</svg>
