 
<svg width="63" height="53" viewBox="0 0 63 53" fill="none" xmlns="http://www.w3.org/2000/svg">
<path d="M31.5 53C48.897 53 63 41.1355 63 26.5C63 11.8645 48.897 0 31.5 0C14.103 0 0 11.8645 0 26.5C0 41.1355 14.103 53 31.5 53Z" fill="#08475E"/>
<path d="M62.9109 28.5017C56.9083 23.4519 37.4048 7.04419 37.4048 7.04419L8.37335 31.4675L33.8795 52.925C49.3793 51.951 61.7533 41.5413 62.9109 28.5017Z" fill="#05303D"/>
<path d="M29.1932 24.4863L16.6099 13.9003L16.6485 13.5424L24.3726 7.04432C27.9714 4.0168 33.806 4.0168 37.4048 7.04432C41.0035 10.0718 41.0035 14.9804 37.4048 18.0079L29.6806 24.506L29.1932 24.4863Z" fill="white"/>
<path d="M37.4043 18.0078L29.6806 24.5055L29.1934 24.4864L22.9324 19.2192L37.4043 7.04443C39.2036 8.55814 40.1032 10.5417 40.1032 12.5254C40.1033 14.5105 39.2036 16.4941 37.4043 18.0078Z" fill="#D1FEFB"/>
<path d="M8.37335 31.4677C4.7746 28.4401 4.7746 23.5316 8.37335 20.5041L16.6485 13.5425L29.6806 24.506L21.4055 31.4677C17.8067 34.4952 11.9721 34.4952 8.37335 31.4677Z" fill="#45F6FF"/>
<path d="M29.6806 24.5054L21.4054 31.4671C17.8067 34.4945 11.9721 34.4945 8.37347 31.4671L23.1647 19.0237L29.6806 24.5054Z" fill="#5ECBF1"/>
<path d="M33.8068 28.5138L46.3902 39.0998L46.3515 39.4577L38.6274 45.9558C35.0286 48.9833 29.194 48.9833 25.5952 45.9558C21.9965 42.9283 21.9965 38.0197 25.5952 34.9922L33.3194 28.4941L33.8068 28.5138Z" fill="white"/>
<path d="M46.3513 39.4581L38.6276 45.9558C35.029 48.9832 29.1944 48.9832 25.5957 45.9558L40.0676 33.781L46.3904 39.1002L46.3513 39.4581Z" fill="#D1FEFB"/>
<path d="M54.6267 21.5326C58.2254 24.5601 58.2254 29.4686 54.6267 32.4962L46.3515 39.4578L33.3194 28.4942L41.5945 21.5326C45.1933 18.5051 51.0279 18.5051 54.6267 21.5326Z" fill="#FF405C"/>
<path d="M54.6265 32.4963L46.3513 39.458L39.8353 33.9764L54.6265 21.533C58.2252 24.5604 58.2252 29.4689 54.6265 32.4963Z" fill="#D01273"/>
</svg>
